<svg preserveAspectRatio="none" width="100%" height="100%" overflow="visible" style="display: block;" viewBox="0 0 152.96 48.9998" fill="none" xmlns="http://www.w3.org/2000/svg">
<g id="Group">
<path id="Vector" d="M31.2803 7.93087V0.78125H3.68631e-06V7.93087H11.5443V37.6243H19.742V7.93087H31.2803Z" fill="var(--fill-0, #010101)"/>
<path id="Vector_2" d="M53.3738 31.6761C54.594 29.6579 55.2041 27.397 55.2041 24.8935C55.2041 22.3899 54.594 20.1349 53.3738 18.1345C52.1536 16.134 50.501 14.5597 48.4102 13.4115C46.3193 12.2633 43.9559 11.6892 41.3083 11.6892C38.6606 11.6892 36.2973 12.2751 34.2064 13.4351C32.1155 14.6011 30.4629 16.1754 29.2427 18.1581C28.0226 20.1409 27.4125 22.384 27.4125 24.8875C27.4125 27.3911 28.0226 29.652 29.2427 31.6702C30.4629 33.6884 32.1214 35.2805 34.2301 36.4465C36.3387 37.6125 38.6962 38.1925 41.3083 38.1925C43.9204 38.1925 46.3193 37.6125 48.4102 36.4465C50.501 35.2805 52.1536 33.6884 53.3738 31.6702V31.6761ZM46.3489 28.0481C45.881 28.9714 45.2057 29.6816 44.3409 30.1847C43.4702 30.6877 42.4633 30.9422 41.3142 30.9422C40.1651 30.9422 39.2055 30.6877 38.3348 30.1847C37.4641 29.6816 36.783 28.9654 36.2973 28.0481C35.8116 27.1248 35.5687 26.089 35.5687 24.9408C35.5687 23.7926 35.8116 22.7154 36.2973 21.8099C36.783 20.9044 37.4641 20.2 38.3348 19.697C39.2055 19.1939 40.1947 18.9394 41.3142 18.9394C42.4337 18.9394 43.4643 19.1939 44.3173 19.697C45.1702 20.2 45.8395 20.8984 46.3252 21.7862C46.8109 22.674 47.0538 23.7098 47.0538 24.8935C47.0538 26.0772 46.8168 27.1307 46.3489 28.0481Z" fill="var(--fill-0, #010101)"/>
<path id="Vector_3" d="M59.7945 39.0329C59.7945 39.974 59.5398 40.6664 59.0364 41.1222C58.5329 41.572 57.8932 41.8028 57.1291 41.8028C56.6078 41.8028 56.1458 41.7081 55.7431 41.5128C55.3462 41.3234 54.9494 40.9979 54.5703 40.5481L49.6066 45.5078C50.584 46.6205 51.7153 47.4846 53.0006 48.0883C54.286 48.6979 55.8556 48.9998 57.7036 48.9998C59.6524 48.9998 61.3879 48.5795 62.8983 47.745C64.4146 46.9105 65.6052 45.7446 66.4759 44.2472C67.3466 42.7498 67.779 40.9742 67.779 38.9264V12.2633H59.7886V39.0329H59.7945Z" fill="var(--fill-0, #010101)"/>
<path id="Vector_4" d="M63.8697 0C62.614 0 61.5774 0.420218 60.76 1.25473C59.9426 2.08925 59.5339 3.13092 59.5339 4.38565C59.5339 5.64039 59.9426 6.64062 60.76 7.4929C61.5774 8.34517 62.614 8.77131 63.8697 8.77131C65.1254 8.77131 66.1501 8.34517 66.9497 7.4929C67.7494 6.64062 68.1521 5.60488 68.1521 4.38565C68.1521 3.16643 67.7494 2.08925 66.9497 1.25473C66.1501 0.420218 65.1195 0 63.8697 0Z" fill="var(--fill-0, #010101)"/>
<path id="Vector_5" d="M88.5693 26.8762C88.5693 28.196 88.2199 29.2318 87.5268 29.9834C86.8279 30.7292 85.8921 31.108 84.7074 31.108C83.8723 31.108 83.1555 30.9363 82.5691 30.5871C81.9768 30.2379 81.5326 29.7526 81.2364 29.1252C80.9403 28.4979 80.7922 27.7521 80.7922 26.8821V12.2692H72.8018V26.9827C72.8018 29.1726 73.3053 31.1139 74.3182 32.8007C75.3251 34.4875 76.7289 35.8073 78.5236 36.7661C80.3183 37.7249 82.3796 38.1984 84.7133 38.1984C87.0471 38.1984 89.1024 37.719 90.8735 36.7661C92.6504 35.8073 94.0424 34.4875 95.0493 32.8007C96.0562 31.1139 96.5656 29.1548 96.5656 26.9294V12.2692H88.5753V26.8821L88.5693 26.8762Z" fill="var(--fill-0, #010101)"/>
<path id="Vector_6" d="M116.74 30.3977C115.923 30.7647 114.993 30.9482 113.944 30.9482C112.831 30.9482 111.818 30.6877 110.918 30.1669C110.011 29.6461 109.306 28.9299 108.803 28.0303C108.299 27.1248 108.045 26.0831 108.045 24.8994C108.045 23.7157 108.299 22.6799 108.803 21.7921C109.306 20.9044 110.005 20.2119 110.894 19.7029C111.782 19.1998 112.801 18.9453 113.95 18.9453C114.957 18.9453 115.857 19.0992 116.639 19.4129C117.421 19.7266 118.108 20.2119 118.701 20.8748L123.818 15.7611C122.527 14.4058 121.058 13.3878 119.405 12.7071C117.753 12.0265 115.934 11.6892 113.95 11.6892C111.303 11.6892 108.921 12.2633 106.795 13.4115C104.669 14.5597 102.992 16.134 101.754 18.1345C100.516 20.1349 99.9004 22.4077 99.9004 24.9467C99.9004 27.4858 100.51 29.7112 101.731 31.7294C102.951 33.7476 104.621 35.3279 106.742 36.4761C108.862 37.6243 111.231 38.1984 113.844 38.1984C115.899 38.1984 117.759 37.8433 119.429 37.1271C121.099 36.4169 122.598 35.3634 123.919 33.9725L118.855 28.8589C118.262 29.5218 117.557 30.0308 116.74 30.3977Z" fill="var(--fill-0, #010101)"/>
<path id="Vector_7" d="M151.13 18.1345C149.91 16.134 148.257 14.5597 146.166 13.4115C144.075 12.2633 141.712 11.6892 139.064 11.6892C136.417 11.6892 134.053 12.2751 131.963 13.4351C129.872 14.6011 128.219 16.1754 126.999 18.1581C125.779 20.1409 125.169 22.384 125.169 24.8875C125.169 27.3911 125.779 29.652 126.999 31.6702C128.219 33.6884 129.878 35.2805 131.986 36.4465C134.095 37.6125 136.452 38.1925 139.064 38.1925C141.677 38.1925 144.075 37.6125 146.166 36.4465C148.257 35.2805 149.91 33.6884 151.13 31.6702C152.35 29.652 152.96 27.3911 152.96 24.8875C152.96 22.384 152.35 20.129 151.13 18.1286V18.1345ZM144.105 28.0481C143.637 28.9714 142.962 29.6816 142.097 30.1847C141.226 30.6877 140.219 30.9422 139.07 30.9422C137.921 30.9422 136.962 30.6877 136.091 30.1847C135.22 29.6816 134.539 28.9654 134.053 28.0481C133.568 27.1248 133.325 26.089 133.325 24.9408C133.325 23.7926 133.568 22.7154 134.053 21.8099C134.539 20.9044 135.22 20.2 136.091 19.697C136.962 19.1939 137.951 18.9394 139.07 18.9394C140.19 18.9394 141.22 19.1939 142.073 19.697C142.926 20.2 143.596 20.8984 144.081 21.7862C144.567 22.674 144.81 23.7098 144.81 24.8935C144.81 26.0772 144.573 27.1307 144.105 28.0481Z" fill="var(--fill-0, #010101)"/>
</g>
</svg>
